<svg xmlns="http://www.w3.org/2000/svg" viewBox="0 0 1200 630" width="1200" height="630" role="img" aria-label="Mesh - code context for AI agents">
  <defs>
    <linearGradient id="bg" x1="0" y1="0" x2="1" y2="1">
      <stop offset="0%" stop-color="#08111a"/>
      <stop offset="100%" stop-color="#0d2632"/>
    </linearGradient>
    <radialGradient id="glow" cx="70%" cy="35%" r="55%">
      <stop offset="0%" stop-color="#00d4e8" stop-opacity="0.34"/>
      <stop offset="100%" stop-color="#00d4e8" stop-opacity="0"/>
    </radialGradient>
    <pattern id="grid" width="54" height="54" patternUnits="userSpaceOnUse">
      <path d="M54 0H0V54" fill="none" stroke="#ffffff" stroke-opacity="0.055"/>
    </pattern>
  </defs>
  <rect width="1200" height="630" fill="url(#bg)"/>
  <rect width="1200" height="630" fill="url(#grid)"/>
  <circle cx="835" cy="220" r="360" fill="url(#glow)"/>
  <g transform="translate(92 88)">
    <path d="M40 38L16 84L40 130" stroke="#00d4e8" stroke-width="18" fill="none" stroke-linecap="round" stroke-linejoin="round"/>
    <path d="M140 38L164 84L140 130" stroke="#7ceeff" stroke-width="18" fill="none" stroke-linecap="round" stroke-linejoin="round"/>
  </g>
  <text x="94" y="305" fill="#f7fbfc" font-family="Barlow Condensed, Impact, sans-serif" font-size="142" font-style="italic" font-weight="900">MESH</text>
  <text x="100" y="372" fill="#00d4e8" font-family="Geist Mono, monospace" font-size="25" letter-spacing="3">CODE CONTEXT FOR AI AGENTS</text>
  <text x="100" y="440" fill="#c7d6da" opacity="0.78" font-family="DM Sans, Arial, sans-serif" font-size="34">Terminal CLI · IDE · MCP Server · Gateway API</text>
  <g transform="translate(780 145)">
    <rect x="0" y="0" width="300" height="252" rx="18" fill="#071018" stroke="#ffffff" stroke-opacity="0.10"/>
    <rect x="22" y="28" width="180" height="13" rx="6" fill="#00d4e8" opacity="0.85"/>
    <rect x="22" y="66" width="246" height="12" rx="6" fill="#ffffff" opacity="0.16"/>
    <rect x="22" y="98" width="216" height="12" rx="6" fill="#ffffff" opacity="0.16"/>
    <rect x="22" y="130" width="258" height="12" rx="6" fill="#ffffff" opacity="0.16"/>
    <rect x="22" y="172" width="118" height="12" rx="6" fill="#4ec994" opacity="0.8"/>
    <rect x="22" y="206" width="220" height="12" rx="6" fill="#00d4e8" opacity="0.55"/>
  </g>
</svg>
